
		<svg xmlns="http://www.w3.org/2000/svg" xmlns:xlink="http://www.w3.org/1999/xlink" version="1.1" width="3219.512195121951" height="3292.682926829268">
			<rect fill="#fff" width="3219.512195121951" height="3292.682926829268"/>
			<g transform="scale(14.634146341463415) translate(10, 10)">
				<defs id="SvgjsDefs1377"></defs><g id="SvgjsG1378" featureKey="root" fill="#ffffff"></g><g id="SvgjsG1379" featureKey="symbol1" fill="#180f0c" transform="matrix(1.25,0,0,1.25,37.34375,-2.473750114440918)"><path d="M30.265,84.225c0.737,3.348,3.613,5.776,6.839,5.776H63.62c3.318,0,6.229-2.587,6.919-6.15  c2.592-13.373,4.572-38.177-10.449-56.369c0.454-0.095,0.802-0.478,0.802-0.96v-6.376c0-0.553-0.447-1-1-1h-3.356l-2.215-8.4  C54.205,10.306,53.808,10,53.354,10h-6.593c-0.454,0-0.852,0.306-0.967,0.745l-2.214,8.4h-3.357c-0.553,0-1,0.447-1,1v6.376  c0,0.553,0.447,1,1,1h0.301C35.785,32.512,22.71,49.931,30.265,84.225z M68.576,83.47c-0.509,2.626-2.593,4.531-4.956,4.531H37.104  c-2.294,0-4.349-1.769-4.886-4.206c-1.791-8.133-2.359-15.286-2.15-21.543c9.867,0.037,14.987,1.023,19.931,1.978  c5.04,0.975,10.261,1.98,20.339,2.015C70.291,72.856,69.469,78.86,68.576,83.47z M47.531,12h5.052l1.884,7.146h-8.819L47.531,12z   M41.223,21.146h17.669v4.376H41.223V21.146z M57.5,27.521c9.693,10.934,12.617,24.677,12.825,36.723  c-9.878-0.036-15.002-1.022-19.948-1.978c-5.019-0.971-10.22-1.971-20.216-2.014c1.393-22.564,13.07-32.58,13.223-32.707  c0.008-0.007,0.011-0.017,0.019-0.023H57.5z"></path><path d="M59.38,59.067c0.18,0,0.36-0.018,0.542-0.054c1.564-0.313,2.678-1.962,3.133-4.641c0.401-2.359,0.284-5.344-0.33-8.403  c-1.167-5.817-4.239-11.623-7.619-10.953c-1.564,0.313-2.678,1.962-3.133,4.641c-0.401,2.359-0.284,5.344,0.33,8.404  C53.408,53.564,56.214,59.067,59.38,59.067z M53.944,39.992c0.289-1.7,0.899-2.883,1.554-3.015c0.047-0.01,0.096-0.014,0.146-0.014  c1.37,0,3.935,3.488,5.12,9.399c0.567,2.825,0.681,5.551,0.319,7.675c-0.289,1.7-0.899,2.883-1.554,3.015  c-1.336,0.288-4.036-3.259-5.266-9.386C53.696,44.842,53.583,42.116,53.944,39.992z"></path><path d="M19.948,19.146c-5.417,0-9.823,4.406-9.823,9.823s4.406,9.824,9.823,9.824s9.823-4.407,9.823-9.824  S25.365,19.146,19.948,19.146z M19.948,36.793c-4.313,0-7.823-3.51-7.823-7.824c0-4.313,3.51-7.823,7.823-7.823  s7.823,3.51,7.823,7.823C27.771,33.283,24.262,36.793,19.948,36.793z"></path><path d="M19.948,23.551c-2.592,0-4.7,2.108-4.7,4.7c0,0.553,0.447,1,1,1s1-0.447,1-1c0-1.489,1.211-2.7,2.7-2.7c0.553,0,1-0.447,1-1  S20.501,23.551,19.948,23.551z"></path><path d="M82.836,40.88c0-2.399-1.952-4.352-4.352-4.352s-4.352,1.952-4.352,4.352s1.952,4.352,4.352,4.352  S82.836,43.279,82.836,40.88z M76.133,40.88c0-1.297,1.055-2.352,2.352-2.352s2.352,1.055,2.352,2.352s-1.055,2.352-2.352,2.352  S76.133,42.177,76.133,40.88z"></path><path d="M14.856,49.336c0,2.399,1.952,4.352,4.352,4.352s4.352-1.952,4.352-4.352s-1.952-4.352-4.352-4.352  S14.856,46.937,14.856,49.336z M21.56,49.336c0,1.297-1.055,2.352-2.352,2.352s-2.352-1.055-2.352-2.352s1.055-2.352,2.352-2.352  S21.56,48.039,21.56,49.336z"></path><path d="M78.966,9.979c-6.153,0-11.16,5.007-11.16,11.16s5.007,11.159,11.16,11.159s11.159-5.006,11.159-11.159  S85.119,9.979,78.966,9.979z M78.966,30.299c-5.051,0-9.16-4.108-9.16-9.159s4.109-9.16,9.16-9.16s9.159,4.109,9.159,9.16  S84.017,30.299,78.966,30.299z"></path><path d="M78.674,15.156c-3.299,0-5.982,2.685-5.982,5.983c0,0.553,0.447,1,1,1s1-0.447,1-1c0-2.196,1.786-3.983,3.982-3.983  c0.553,0,1-0.447,1-1S79.227,15.156,78.674,15.156z"></path></g><g id="SvgjsG1380" featureKey="text1" fill="#191560" transform="matrix(2.214941853959502,0,0,2.214941853959502,-2.076508252128678,116.59300211723868)"><path d="M0.9375 8.964375 l1.4844 0 l2.9492 10.439 l4.1406 -10.439 l0.3125 0 l4.1016 10.439 l2.998 -10.439 l1.4746 0 l-4.1504 14.482 l-0.2832 0 l-4.2871 -10.957 l-4.3848 10.957 l-0.26367 0 z M25.9277375 12.187375 q2.470703125 0 4.1015625 1.787109375 q1.50390625 1.630859375 1.50390625 3.876953125 q0.01953125 5.546875 0 5.634765625 l-1.4551 0 l0 -2.4316 q-1.142578125 2.12890625 -4.150390625 2.3828125 q-2.4609375 0 -4.018554688 -1.674804688 t-1.5576 -3.9111 q0 -2.2265625 1.474609375 -3.8671875 q1.630859375 -1.796875 4.1015625 -1.796875 z M25.9277375 13.535375 q-1.708984375 0 -2.939453125 1.26953125 t-1.2305 3.0664 q0 1.162109375 0.6298828125 2.236328125 t2.1338 1.8164 q3.76953125 0.83984375 5.361328125 -3.427734375 q0.087890625 -1.3671875 -0.29296875 -2.6171875 q-0.2734375 -0.56640625 -0.751953125 -1.07421875 q-1.201171875 -1.26953125 -2.91015625 -1.26953125 z M34.68748125 8.310375 q0.46875 0 0.8056640625 0.33203125 t0.33691 0.80078 t-0.33691 0.80566 t-0.80566 0.33691 t-0.80078 -0.33691 t-0.33203 -0.80566 t0.33203 -0.80078 t0.80078 -0.33203 z M34.00388125 12.714375 l1.377 0 l0 10.713 l-1.377 0 l0 -10.713 z M42.08981875 21.914075 q-1.015625 0.546875 -1.9921875 0.087890625 q-1.19140625 -0.908203125 -1.1328125 -2.587890625 l0 -4.5313 l2.5391 0 l0 -1.1816 l-2.5488 0 l0 -5.1758 l-1.3867 0 l0 11.123 q-0.01953125 1.171875 0.537109375 2.1484375 q0.91796875 1.552734375 2.5 1.640625 q0.83984375 0.029296875 1.9140625 -0.380859375 q-0.166015625 -0.41015625 -0.4296875 -1.142578125 z M50.09769375 13.632375 l-0.87891 0.91797 q-1.11328125 -1.07421875 -2.158203125 -1.07421875 q-0.673828125 0 -1.15234375 0.439453125 t-0.47852 1.0449 q0 0.5078125 0.400390625 0.9765625 q0.390625 0.498046875 1.650390625 1.142578125 q1.54296875 0.791015625 2.08984375 1.533203125 q0.537109375 0.751953125 0.537109375 1.689453125 q0 1.30859375 -0.9228515625 2.221679688 t-2.3096 0.91309 q-0.927734375 0 -1.772460938 -0.3955078125 t-1.3916 -1.1084 l0.86914 -0.98633 q1.0546875 1.19140625 2.236328125 1.19140625 q0.8203125 0 1.401367188 -0.5322265625 t0.58105 -1.2451 q0 -0.595703125 -0.380859375 -1.0546875 t-1.7285 -1.1523 q-1.455078125 -0.732421875 -1.97265625 -1.474609375 q-0.52734375 -0.72265625 -0.52734375 -1.66015625 q0 -1.220703125 0.8349609375 -2.026367188 t2.0947 -0.80566 q1.474609375 0 2.978515625 1.4453125 z M56.44529375 10.058375 q-1.015625 -0.546875 -1.9921875 -0.087890625 q-0.87890625 0.46875 -1.1328125 2.587890625 l0 1.0742 l2.5391 0 l0 1.1816 l-2.5488 0 l0 8.6328 l-1.3867 0 l0 -11.123 q0.029296875 -1.30859375 0.537109375 -2.1484375 q0.78125 -1.62109375 2.5 -1.6796875 q0.87890625 -0.205078125 1.9140625 0.419921875 q-0.166015625 0.41015625 -0.4296875 1.142578125 z M59.53123125 8.310375 q0.46875 0 0.8056640625 0.33203125 t0.33691 0.80078 t-0.33691 0.80566 t-0.80566 0.33691 t-0.80078 -0.33691 t-0.33203 -0.80566 t0.33203 -0.80078 t0.80078 -0.33203 z M58.84763125 12.714375 l1.377 0 l0 10.713 l-1.377 0 l0 -10.713 z M72.08996875 19.619175 l1.1523 0.61523 q-0.556640625 1.123046875 -1.30859375 1.806640625 t-1.6895 1.04 t-2.1191 0.35645 q-2.6171875 0 -4.091796875 -1.713867188 t-1.4746 -3.8721 q0 -2.041015625 1.25 -3.6328125 q1.58203125 -2.03125 4.248046875 -2.03125 q2.724609375 0 4.365234375 2.080078125 q1.162109375 1.46484375 1.171875 3.65234375 l-9.6191 0 q0.0390625 1.875 1.19140625 3.071289063 t2.8418 1.1963 q0.8203125 0 1.591796875 -0.2880859375 t1.3135 -0.75684 t1.1768 -1.5234 z M72.08996875 16.738275 q-0.2734375 -1.103515625 -0.80078125 -1.762695313 t-1.3965 -1.0645 t-1.8262 -0.40527 q-1.572265625 0 -2.705078125 1.015625 q-0.8203125 0.7421875 -1.240234375 2.216796875 l7.9688 0 z M75.94730625 8.574375 l1.3867 0 l0 14.854 l-1.3867 0 l0 -14.854 z M90.08834375 21.347675 q0.87890625 -1.46484375 1.0546875 -2.880859375 q0 -10.16601563 0 -10.14648438 l-1.3672 0 l0 5.9766 q-0.869140625 -1.064453125 -1.943359375 -1.586914063 t-2.3535 -0.52246 q-2.265625 0 -3.876953125 1.650390625 t-1.6113 4.0039 q0 2.314453125 1.62109375 3.955078125 t3.9063 1.6406 q1.30859375 0 2.456054688 -0.5029296875 t2.1143 -1.5869 z M85.63474375 22.119175 q-1.162109375 0 -2.133789063 -0.5712890625 t-1.5479 -1.5869 t-0.57617 -2.168 q0 -1.1328125 0.5810546875 -2.172851563 t1.5625 -1.6113 t2.0947 -0.57129 q1.1328125 0 2.1484375 0.5712890625 t1.5625 1.5527 t0.54688 2.1924 q0 1.865234375 -1.23046875 3.115234375 t-3.0078 1.25 z"></path></g><g id="SvgjsG1381" featureKey="text2" fill="#191560" transform="matrix(1.7158253298524369,0,0,1.7158253298524369,-2.9992627207632006,164.72382815064458)"><path d="M1.748 8.886375 l1.4551 0 l0 13.086 l5.5664 0 l0 1.3965 l-7.0215 0 l0 -14.482 z M15.888675 12.187375 q2.470703125 0 4.1015625 1.787109375 q1.50390625 1.630859375 1.50390625 3.876953125 q0.01953125 5.546875 0 5.634765625 l-1.4551 0 l0 -2.4316 q-1.142578125 2.12890625 -4.150390625 2.3828125 q-2.4609375 0 -4.018554688 -1.674804688 t-1.5576 -3.9111 q0 -2.2265625 1.474609375 -3.8671875 q1.630859375 -1.796875 4.1015625 -1.796875 z M15.888675 13.535375 q-1.708984375 0 -2.939453125 1.26953125 t-1.2305 3.0664 q0 1.162109375 0.6298828125 2.236328125 t2.1338 1.8164 q3.76953125 0.83984375 5.361328125 -3.427734375 q0.087890625 -1.3671875 -0.29296875 -2.6171875 q-0.2734375 -0.56640625 -0.751953125 -1.07421875 q-1.201171875 -1.26953125 -2.91015625 -1.26953125 z M23.98441875 12.461375 l1.3867 0 l0 5 q0 1.8359375 0.1953125 2.51953125 q0.29296875 0.986328125 1.123046875 1.557617188 t1.9922 0.57129 q1.15234375 0 1.953125 -0.556640625 t1.1035 -1.4648 q0.21484375 -0.615234375 0.21484375 -2.626953125 l0 -5 l1.4063 0 l0 5.2637 q0 2.216796875 -0.5224609375 3.334960938 t-1.5576 1.748 t-2.5977 0.62988 q-1.572265625 0 -2.6171875 -0.6298828125 t-1.5625 -1.7676 t-0.51758 -3.4229 l0 -5.1563 z M36.396446875 19.365275 l-0.019531 -1.1426 q-0.029296875 -0.83984375 0.068359375 -1.42578125 q0.21484375 -1.845703125 0.9375 -2.705078125 q0.703125 -0.751953125 1.435546875 -1.162109375 q1.2109375 -0.517578125 2.763671875 -0.48828125 q1.2109375 0 2.241210938 0.6103515625 t1.4697 1.6406 t0.43945 3.2275 l0 5.5078 l-1.3672 0 l0 -5.1074 q0 -1.85546875 -0.15625 -2.48046875 q-0.244140625 -1.064453125 -0.966796875 -1.508789063 t-2.1387 -0.44434 q-1.25 0 -2.2265625 0.72265625 t-0.9082 1.9727 q-0.185546875 0.80078125 -0.185546875 2.919921875 l0 3.9258 l-1.3867 0 l0 -4.0625 z M58.574671875 21.347675 q0.87890625 -1.46484375 1.0546875 -2.880859375 q0 -10.16601563 0 -10.14648438 l-1.3672 0 l0 5.9766 q-0.869140625 -1.064453125 -1.943359375 -1.586914063 t-2.3535 -0.52246 q-2.265625 0 -3.876953125 1.650390625 t-1.6113 4.0039 q0 2.314453125 1.62109375 3.955078125 t3.9063 1.6406 q1.30859375 0 2.456054688 -0.5029296875 t2.1143 -1.5869 z M54.121071875 22.119175 q-1.162109375 0 -2.133789063 -0.5712890625 t-1.5479 -1.5869 t-0.57617 -2.168 q0 -1.1328125 0.5810546875 -2.172851563 t1.5625 -1.6113 t2.0947 -0.57129 q1.1328125 0 2.1484375 0.5712890625 t1.5625 1.5527 t0.54688 2.1924 q0 1.865234375 -1.23046875 3.115234375 t-3.0078 1.25 z M61.92386875 18.525375 l0 -1.2891 q0.15625 -0.966796875 0.44921875 -1.572265625 q0.68359375 -1.6796875 1.8359375 -2.4609375 t1.9141 -0.78125 q0.56640625 0 1.2109375 0.37109375 l-0.71289 1.1523 q-0.908203125 -0.33203125 -1.801757813 0.537109375 t-1.2354 1.8945 q-0.25390625 0.908203125 -0.25390625 3.408203125 l0 3.623 l-1.4063 0 l0 -4.8828 z M73.56445625 12.187375 q2.470703125 0 4.1015625 1.787109375 q1.474609375 1.640625 1.474609375 3.876953125 t-1.5625 3.9111 t-4.0137 1.6748 q-2.4609375 0 -4.018554688 -1.674804688 t-1.5576 -3.9111 q0 -2.2265625 1.474609375 -3.8671875 q1.630859375 -1.796875 4.1015625 -1.796875 z M73.56445625 13.535375 q-1.708984375 0 -2.939453125 1.26953125 t-1.2305 3.0664 q0 1.162109375 0.5615234375 2.172851563 t1.5186 1.5527 t2.0898 0.54199 q1.15234375 0 2.104492188 -0.5419921875 t1.5088 -1.5527 t0.55664 -2.1729 q0 -1.796875 -1.23046875 -3.06640625 t-2.9395 -1.2695 z M81.660184375 19.277375 l0 -1.709 q0.17578125 -2.1875 0.91796875 -3.203125 q0.615234375 -0.927734375 1.611328125 -1.474609375 q0.654296875 -0.419921875 1.865234375 -0.44921875 q0.78125 0 1.58203125 0.29296875 t1.2402 0.78125 t0.88867 1.4648 q0.244140625 -0.625 1.025390625 -1.46484375 q0.380859375 -0.322265625 0.986328125 -0.634765625 q0.41015625 -0.263671875 1.904296875 -0.439453125 q1.11328125 0 2.138671875 0.556640625 t1.4404 1.5674 t0.41504 3.0127 l0 5.8496 l-1.4063 0 l0 -5.8496 q0 -1.71875 -0.244140625 -2.36328125 t-0.83984 -1.04 t-1.4355 -0.39551 q-1.58203125 0.107421875 -2.705078125 1.533203125 q-0.439453125 0.60546875 -0.6640625 2.685546875 l0 5.4297 l-1.377 0 l0 -5.4883 q0 -1.93359375 -0.4296875 -2.631835938 t-1.0254 -1.1133 t-1.4844 -0.41504 q-0.95703125 0 -1.645507813 0.48828125 t-1.0791 1.46 t-0.3125 3.1592 l0 4.541 l-1.3672 0 l0 -4.1504 z M105.625003125 12.187375 q2.470703125 0 4.1015625 1.787109375 q1.50390625 1.630859375 1.50390625 3.876953125 q0.01953125 5.546875 0 5.634765625 l-1.4551 0 l0 -2.4316 q-1.142578125 2.12890625 -4.150390625 2.3828125 q-2.4609375 0 -4.018554688 -1.674804688 t-1.5576 -3.9111 q0 -2.2265625 1.474609375 -3.8671875 q1.630859375 -1.796875 4.1015625 -1.796875 z M105.625003125 13.535375 q-1.708984375 0 -2.939453125 1.26953125 t-1.2305 3.0664 q0 1.162109375 0.6298828125 2.236328125 t2.1338 1.8164 q3.76953125 0.83984375 5.361328125 -3.427734375 q0.087890625 -1.3671875 -0.29296875 -2.6171875 q-0.2734375 -0.56640625 -0.751953125 -1.07421875 q-1.201171875 -1.26953125 -2.91015625 -1.26953125 z M117.763646875 21.914075 q-1.015625 0.546875 -1.9921875 0.087890625 q-1.19140625 -0.908203125 -1.1328125 -2.587890625 l0 -4.5313 l2.5391 0 l0 -1.1816 l-2.5488 0 l0 -5.1758 l-1.3867 0 l0 11.123 q-0.01953125 1.171875 0.537109375 2.1484375 q0.91796875 1.552734375 2.5 1.640625 q0.83984375 0.029296875 1.9140625 -0.380859375 q-0.166015625 -0.41015625 -0.4296875 -1.142578125 z"></path></g>
			</g>
		</svg>
	